<svg xmlns="http://www.w3.org/2000/svg" viewBox="0 0 90 32">
  <rect width="90" height="32" rx="5" fill="#000"/>
  <path d="M18 8.5c.7-.8 1.1-1.9 1-3-.9.1-2.1.6-2.8 1.4-.6.7-1.1 1.8-1 2.9 1 .1 2-.5 2.8-1.3z" fill="#fff"/>
  <path d="M19 10.1c-1.6-.1-2.9.9-3.7.9-.8 0-1.9-.8-3.2-.8-1.6 0-3.1 1-3.9 2.4-1.7 2.9-.4 7.1 1.2 9.5.8 1.2 1.7 2.4 2.9 2.3 1.2-.1 1.6-.8 3-.8 1.4 0 1.8.8 3 .8 1.3-.1 2.1-1.2 2.9-2.3.5-.8.9-1.6 1.1-2.3-2.6-1-2.7-4.5-.1-5.8-.9-1.5-2.4-2.9-3.2-2.9z" fill="#fff"/>
  <text x="30" y="21" font-family="-apple-system,Arial,sans-serif" font-size="13" font-weight="600" fill="#fff">Pay</text>
</svg>
